<svg xmlns="http://www.w3.org/2000/svg" xmlns:xlink="http://www.w3.org/1999/xlink" version="1.1" style="display:none;">
  <symbol id="icon-settings" viewBox="0 0 160 160">
      <path
      d="M156.1,65.1l-15.3-9.2,3.1-18.6a8.3,8.3,0,0,0-2.2-7l-12-12a7.83,7.83,0,0,0-7-2.2L105,19,99.4,5A8,8,0,0,0,92,0H68a8,8,0,0,0-7.4,5L55,19,37.4,16.1a8.3,8.3,0,0,0-7,2.2l-12,12a7.83,7.83,0,0,0-2.2,7L19,55,5,60.6A8,8,0,0,0,0,68V88a8.18,8.18,0,0,0,3.9,6.9l15.3,9.2-3.1,18.6a8.21,8.21,0,0,0,2.2,7l12,12A8.1,8.1,0,0,0,36,144a10,10,0,0,0,1.6-.2l14.5-2.9,9.1,15.2a7.94,7.94,0,0,0,6.9,3.9h24a8,8,0,0,0,7.4-5l5.6-14,17.6,2.9a5.7,5.7,0,0,0,1.3.1,8.27,8.27,0,0,0,5.7-2.3l12-12a7.83,7.83,0,0,0,2.2-7l-3.1-18.6,15.3-9.2A8.06,8.06,0,0,0,160,88V72A8.18,8.18,0,0,0,156.1,65.1ZM144,83.5l-16.1,9.7-.1.1c-.3.2-.5.4-.8.6a1.75,1.75,0,0,0-.5.4c-.2.2-.3.4-.5.5l-.6.6a2.19,2.19,0,0,0-.3.5,3.51,3.51,0,0,0-.5.8,1.44,1.44,0,0,0-.2.7c-.1.3-.2.5-.3.8a1.7,1.7,0,0,0-.1.7c0,.3-.1.6-.1.9v.6a3.4,3.4,0,0,0,.1,1v.1l3.3,19.9-6.2,6.2-19.9-3.3h-.5c-.3,0-.7-.1-1-.1s-.4.1-.7.1-.6.1-.9.1-.5.1-.7.2-.5.2-.8.3l-.6.3c-.2.1-.5.3-.7.4s-.3.3-.5.4l-.6.6c-.2.2-.3.4-.5.6s-.3.4-.5.6a2,2,0,0,0-.4.8l-.3.6-6,15H72.4l-9.7-16.1c0-.1-.1-.1-.1-.2s-.1-.1-.1-.2-.3-.3-.4-.5a2.19,2.19,0,0,0-.4-.5l-.1-.1a.35.35,0,0,0-.2-.1c-.1-.1-.2-.2-.3-.2a2.65,2.65,0,0,0-.6-.5l-.6-.3c-.3-.1-.5-.3-.8-.4s-.4-.1-.6-.2l-.9-.3c-.2,0-.4-.1-.6-.1s-.6-.1-.9-.1h-.6a3.4,3.4,0,0,0-1,.1h-.2l-15.8,3.2-6.1-6.1,3.3-19.9v-.1a3.4,3.4,0,0,0,.1-1V100c0-.3-.1-.5-.1-.8s-.1-.5-.1-.8-.1-.4-.2-.6a6.89,6.89,0,0,0-.3-.8,4.33,4.33,0,0,1-.4-.7,5.75,5.75,0,0,0-.4-.7,1.21,1.21,0,0,0-.5-.5l-.6-.6c-.1-.1-.3-.2-.5-.4s-.5-.4-.8-.6l-.1-.1L15.7,83.7V73.6l14.9-5.9h.1c.2-.1.3-.2.5-.2a4,4,0,0,0,.9-.5,2.66,2.66,0,0,0,.6-.5c.2-.2.4-.3.6-.5a2.66,2.66,0,0,0,.5-.6c.2-.2.3-.4.5-.6a2.5,2.5,0,0,0,.4-.7,4.33,4.33,0,0,0,.4-.7,1.85,1.85,0,0,0,.2-.7,1.85,1.85,0,0,0,.2-.7,2.48,2.48,0,0,0,.1-.8c0-.2.1-.5.1-.7a4.1,4.1,0,0,0-.1-1.1v-.6h0L32.3,39l6.2-6.2,19.8,3.3h.6c.3,0,.7.1,1,.1s.6-.1.9-.1a1.27,1.27,0,0,0,.6-.1l.9-.3c.2-.1.4-.1.5-.2.3-.1.5-.3.8-.4a2.18,2.18,0,0,0,.5-.3,1.79,1.79,0,0,1,.7-.5c.2-.2.4-.3.5-.5s.4-.5.6-.7.3-.3.4-.5.3-.6.5-.9.2-.3.2-.4v-.1h0l6-14.9H86.2l6,15a.1.1,0,0,0,.1.1,8.72,8.72,0,0,0,1.1,1.8l.3.3a10.7,10.7,0,0,0,1.6,1.4.31.31,0,0,0,.2.1,8.87,8.87,0,0,0,1.7.8c.1,0,.2.1.4.1a7.11,7.11,0,0,0,2.1.3h.1c.3,0,.6-.1.9-.1h.6l19.8-3.3,6.2,6.2L124,58.9V59a3.4,3.4,0,0,0-.1,1v.6c0,.3.1.6.1.9a1.7,1.7,0,0,0,.1.7c.1.3.2.5.3.8s.1.5.2.7a2.18,2.18,0,0,0,.5.8c.1.2.2.3.3.5l.6.6c.2.2.3.4.5.5s.3.3.5.4.5.4.8.6l.1.1L144,76.9v6.6Z"/>
      <path d="M80,47.1a32,32,0,1,0,32,32A32.09,32.09,0,0,0,80,47.1Zm0,48a16,16,0,1,1,16-16A16,16,0,0,1,80,95.1Z"/>
  <symbol>
  <symbol id="icon-list" viewBox="0 0 128 160">
      <path d="M88,80.1H40a8,8,0,1,0,0,16H88a8,8,0,0,0,0-16Z"/>
      <path d="M88,112.1H40a8,8,0,1,0,0,16H88a8,8,0,1,0,0-16Z"/>
      <path
    d="M127.9,55.6a2.77,2.77,0,0,0-.1-.9,1.85,1.85,0,0,0-.2-.7c-.1-.3-.1-.5-.2-.8s-.2-.5-.3-.7a2.51,2.51,0,0,0-.4-.7c-.2-.2-.3-.5-.5-.7s-.2-.3-.3-.4l-44-48-.1-.1L81.2,2c-.2-.2-.4-.3-.6-.5a2.5,2.5,0,0,0-.7-.4,4.33,4.33,0,0,0-.7-.4c-.2-.1-.5-.2-.7-.3a1.85,1.85,0,0,0-.7-.2,1.7,1.7,0,0,0-.7-.1c-.3,0-.6-.1-.9-.1H24A24.07,24.07,0,0,0,0,24V136a24.07,24.07,0,0,0,24,24h80a24.07,24.07,0,0,0,24-24V56A.76.76,0,0,0,127.9,55.6ZM80,24.3l21.8,23.8H88a8,8,0,0,1-8-8Zm24,119.8H24a8,8,0,0,1-8-8V24.1a8,8,0,0,1,8-8H64v24a24.07,24.07,0,0,0,24,24h24v72A8,8,0,0,1,104,144.1Z"/>
  <symbol>
</svg>
